{
  "accessors": [
    {
      "bufferView": 2,
      "componentType": 5126,
      "count": 576,
      "max": [
        30.5,
        49.5,
        175.99853515625
      ],
      "min": [
        -30.5,
        -0.5,
        0.0
      ],
      "type": "VEC3"
    },
    {
      "bufferView": 2,
      "byteOffset": 6912,
      "componentType": 5126,
      "count": 576,
      "max": [
        1.0,
        1.0,
        1.0
      ],
      "min": [
        -1.0,
        -1.0,
        -1.0
      ],
      "type": "VEC3"
    },
    {
      "bufferView": 1,
      "componentType": 5126,
      "count": 576,
      "max": [
        1.0,
        1.0
      ],
      "min": [
        0.0,
        0.0
      ],
      "type": "VEC2"
    },
    {
      "bufferView": 0,
      "componentType": 5125,
      "count": 792,
      "type": "SCALAR"
    },
    {
      "bufferView": 2,
      "byteOffset": 13824,
      "componentType": 5126,
      "count": 16,
      "max": [
        120.998046875,
        2.3232421875,
        99.00025939941406
      ],
      "min": [
        -286.0,
        -1.6767578125,
        11.0
      ],
      "type": "VEC3"
    },
    {
      "bufferView": 2,
      "byteOffset": 14016,
      "componentType": 5126,
      "count": 16,
      "max": [
        0.0,
        1.0,
        0.0
      ],
      "min": [
        0.0,
        1.0,
        0.0
      ],
      "type": "VEC3"
    },
    {
      "bufferView": 1,
      "byteOffset": 4608,
      "componentType": 5126,
      "count": 16,
      "max": [
        1.0,
        1.0
      ],
      "min": [
        0.0,
        0.0
      ],
      "type": "VEC2"
    },
    {
      "bufferView": 0,
      "byteOffset": 3168,
      "componentType": 5125,
      "count": 24,
      "type": "SCALAR"
    },
    {
      "bufferView": 2,
      "byteOffset": 14208,
      "componentType": 5126,
      "count": 92,
      "max": [
        119.390625,
        412.1015625,
        227.99649047851563
      ],
      "min": [
        -6.60546875,
        412.0995788574219,
        51.99795150756836
      ],
      "type": "VEC3"
    },
    {
      "bufferView": 2,
      "byteOffset": 15312,
      "componentType": 5126,
      "count": 92,
      "max": [
        2.501440974356228e-07,
        -1.0,
        5.087168574391399e-06
      ],
      "min": [
        0.0,
        -1.0,
        -7.64973447076045e-06
      ],
      "type": "VEC3"
    },
    {
      "bufferView": 1,
      "byteOffset": 4736,
      "componentType": 5126,
      "count": 92,
      "max": [
        1.4187712669372559,
        1.3899649381637573
      ],
      "min": [
        0.15881049633026123,
        -0.3700205087661743
      ],
      "type": "VEC2"
    },
    {
      "bufferView": 0,
      "byteOffset": 3264,
      "componentType": 5125,
      "count": 240,
      "type": "SCALAR"
    },
    {
      "bufferView": 2,
      "byteOffset": 16416,
      "componentType": 5126,
      "count": 65532,
      "max": [
        53392.65625,
        21194.16015625,
        278.0
      ],
      "min": [
        52890.88671875,
        20501.16015625,
        -0.001861572265625
      ],
      "type": "VEC3"
    },
    {
      "bufferView": 2,
      "byteOffset": 802800,
      "componentType": 5126,
      "count": 65532,
      "max": [
        1.0,
        1.0,
        1.0
      ],
      "min": [
        -1.0,
        -1.0,
        -1.0
      ],
      "type": "VEC3"
    },
    {
      "bufferView": 1,
      "byteOffset": 5472,
      "componentType": 5126,
      "count": 65532,
      "max": [
        0.996915340423584,
        1.0
      ],
      "min": [
        0.0,
        3.642919299551295e-17
      ],
      "type": "VEC2"
    },
    {
      "bufferView": 1,
      "byteOffset": 529728,
      "componentType": 5126,
      "count": 65532,
      "max": [
        53392.65625,
        21194.158203125
      ],
      "min": [
        -3714.7109375,
        -389.2021484375
      ],
      "type": "VEC2"
    },
    {
      "bufferView": 1,
      "byteOffset": 1053984,
      "componentType": 5126,
      "count": 65532,
      "max": [
        53392.65625,
        21194.158203125
      ],
      "min": [
        -3714.7109375,
        -75.0
      ],
      "type": "VEC2"
    },
    {
      "bufferView": 0,
      "byteOffset": 4224,
      "componentType": 5125,
      "count": 148209,
      "type": "SCALAR"
    },
    {
      "bufferView": 2,
      "byteOffset": 1589184,
      "componentType": 5126,
      "count": 4044,
      "max": [
        53219.3203125,
        20863.595703125,
        226.08712768554688
      ],
      "min": [
        52897.6796875,
        20508.568359375,
        0.0
      ],
      "type": "VEC3"
    },
    {
      "bufferView": 2,
      "byteOffset": 1637712,
      "componentType": 5126,
      "count": 4044,
      "max": [
        1.0,
        0.9996520280838013,
        0.9999268054962158
      ],
      "min": [
        -1.0,
        -0.9998608827590942,
        -0.9999997615814209
      ],
      "type": "VEC3"
    },
    {
      "bufferView": 1,
      "byteOffset": 1578240,
      "componentType": 5126,
      "count": 4044,
      "max": [
        0.9905354380607605,
        0.9938988089561462
      ],
      "min": [
        0.0,
        0.0069781336933374405
      ],
      "type": "VEC2"
    },
    {
      "bufferView": 1,
      "byteOffset": 1610592,
      "componentType": 5126,
      "count": 4044,
      "max": [
        85.2326889038086,
        86.63027954101563
      ],
      "min": [
        -357.73358154296875,
        -155.50576782226563
      ],
      "type": "VEC2"
    },
    {
      "bufferView": 1,
      "byteOffset": 1642944,
      "componentType": 5126,
      "count": 4044,
      "max": [
        0.9899079203605652,
        0.985557496547699
      ],
      "min": [
        5.551115123125783e-17,
        1.2087740287825e-05
      ],
      "type": "VEC2"
    },
    {
      "bufferView": 0,
      "byteOffset": 597060,
      "componentType": 5125,
      "count": 7596,
      "type": "SCALAR"
    },
    {
      "bufferView": 2,
      "byteOffset": 1686240,
      "componentType": 5126,
      "count": 140,
      "max": [
        573.442138671875,
        211.55316162109375,
        131.93502807617188
      ],
      "min": [
        -3.465510845184326,
        -179.69314575195313,
        -154.4059295654297
      ],
      "type": "VEC3"
    },
    {
      "bufferView": 2,
      "byteOffset": 1687920,
      "componentType": 5126,
      "count": 140,
      "max": [
        0.6151190400123596,
        0.0,
        -0.24331319332122803
      ],
      "min": [
        -0.6150994300842285,
        -0.9699478149414063,
        -1.0
      ],
      "type": "VEC3"
    },
    {
      "bufferView": 1,
      "byteOffset": 1675296,
      "componentType": 5126,
      "count": 140,
      "max": [
        1.0,
        1.0
      ],
      "min": [
        -0.027777671813964844,
        0.0
      ],
      "type": "VEC2"
    },
    {
      "bufferView": 0,
      "byteOffset": 627444,
      "componentType": 5125,
      "count": 336,
      "type": "SCALAR"
    },
    {
      "bufferView": 2,
      "byteOffset": 1689600,
      "componentType": 5126,
      "count": 4,
      "max": [
        42.3336181640625,
        0.7351388335227966,
        70.94386291503906
      ],
      "min": [
        8.699999809265137,
        0.7351388335227966,
        11.800000190734863
      ],
      "type": "VEC3"
    },
    {
      "bufferView": 2,
      "byteOffset": 1689648,
      "componentType": 5126,
      "count": 4,
      "max": [
        0.0,
        -1.0,
        0.0
      ],
      "min": [
        0.0,
        -1.0,
        0.0
      ],
      "type": "VEC3"
    },
    {
      "bufferView": 1,
      "byteOffset": 1676416,
      "componentType": 5126,
      "count": 4,
      "max": [
        16.666778564453125,
        4.645669460296631
      ],
      "min": [
        3.425196886062622,
        4.645669460296631
      ],
      "type": "VEC2"
    },
    {
      "bufferView": 0,
      "byteOffset": 628788,
      "componentType": 5125,
      "count": 6,
      "type": "SCALAR"
    },
    {
      "bufferView": 2,
      "byteOffset": 1689696,
      "componentType": 5126,
      "count": 2140,
      "max": [
        53392.65625,
        21194.16015625,
        104.9984130859375
      ],
      "min": [
        53063.65625,
        20515.806640625,
        -0.0009307861328125
      ],
      "type": "VEC3"
    },
    {
      "bufferView": 2,
      "byteOffset": 1715376,
      "componentType": 5126,
      "count": 2140,
      "max": [
        1.0,
        1.0,
        1.0
      ],
      "min": [
        -1.0,
        -1.0,
        -1.0
      ],
      "type": "VEC3"
    },
    {
      "bufferView": 1,
      "byteOffset": 1676448,
      "componentType": 5126,
      "count": 2140,
      "max": [
        0.9399977922439575,
        0.9989020228385925
      ],
      "min": [
        0.0,
        0.003048142185434699
      ],
      "type": "VEC2"
    },
    {
      "bufferView": 1,
      "byteOffset": 1693568,
      "componentType": 5126,
      "count": 2140,
      "max": [
        53243.65625,
        20969.158203125
      ],
      "min": [
        -19.252742767333984,
        -266.251953125
      ],
      "type": "VEC2"
    },
    {
      "bufferView": 1,
      "byteOffset": 1710688,
      "componentType": 5126,
      "count": 2140,
      "max": [
        0.9818670749664307,
        0.9822130799293518
      ],
      "min": [
        5.551115123125783e-17,
        1.3171964383218437e-05
      ],
      "type": "VEC2"
    },
    {
      "bufferView": 0,
      "byteOffset": 628812,
      "componentType": 5125,
      "count": 6615,
      "type": "SCALAR"
    }
  ],
  "asset": {
    "extras": {
      "author": "SrMonteiro (https://sketchfab.com/crispimrafael)",
      "license": "CC-BY-4.0 (http://creativecommons.org/licenses/by/4.0/)",
      "source": "https://sketchfab.com/3d-models/guilherme-cozinha-3823b9d3bbd8468d88008bcd8cc8a77d",
      "title": "Guilherme - Cozinha"
    },
    "generator": "Sketchfab-15.91.0",
    "version": "2.0"
  },
  "bufferViews": [
    {
      "buffer": 0,
      "byteLength": 655272,
      "name": "floatBufferViews",
      "target": 34963
    },
    {
      "buffer": 0,
      "byteLength": 1727808,
      "byteOffset": 655272,
      "byteStride": 8,
      "name": "floatBufferViews",
      "target": 34962
    },
    {
      "buffer": 0,
      "byteLength": 1741056,
      "byteOffset": 2383080,
      "byteStride": 12,
      "name": "floatBufferViews",
      "target": 34962
    }
  ],
  "buffers": [
    {
      "byteLength": 4124136,
      "uri": "scene.bin"
    }
  ],
  "extensionsUsed": [
    "KHR_materials_emissive_strength",
    "KHR_materials_specular"
  ],
  "images": [
    {
      "uri": "textures/Material_2146805349_baseColor.jpeg"
    }
  ],
  "materials": [
    {
      "alphaMode": "BLEND",
      "doubleSided": true,
      "name": "Material_2146802778",
      "pbrMetallicRoughness": {
        "baseColorFactor": [
          1.0,
          1.0,
          1.0,
          0.46171569284782576
        ],
        "roughnessFactor": 0.17866416354792702
      }
    },
    {
      "name": "Material_2146802824",
      "pbrMetallicRoughness": {
        "roughnessFactor": 0.17523862929867975
      }
    },
    {
      "name": "Material_2146802825",
      "pbrMetallicRoughness": {
        "metallicFactor": 0.0,
        "roughnessFactor": 0.6
      }
    },
    {
      "name": "Material_2146805349",
      "pbrMetallicRoughness": {
        "baseColorTexture": {
          "index": 0
        },
        "metallicFactor": 0.0,
        "roughnessFactor": 0.6
      }
    },
    {
      "doubleSided": true,
      "emissiveFactor": [
        1.0,
        1.0,
        1.0
      ],
      "extensions": {
        "KHR_materials_emissive_strength": {
          "emissiveStrength": 10.0
        }
      },
      "name": "Material_2146802812",
      "pbrMetallicRoughness": {
        "metallicFactor": 0.0,
        "roughnessFactor": 0.6
      }
    },
    {
      "doubleSided": true,
      "name": "Material_112",
      "pbrMetallicRoughness": {
        "roughnessFactor": 0.21790542599748874
      }
    },
    {
      "doubleSided": true,
      "extensions": {
        "KHR_materials_specular": {
          "specularColorFactor": [
            1.0,
            1.0,
            1.0
          ],
          "specularFactor": 0.00457144250344382
        }
      },
      "name": "Material_2146805350",
      "pbrMetallicRoughness": {
        "baseColorTexture": {
          "index": 0
        },
        "metallicFactor": 0.1630481159561629,
        "roughnessFactor": 0.10819080591483707
      }
    }
  ],
  "meshes": [
    {
      "name": "Box017_Material #2146802778_0",
      "primitives": [
        {
          "attributes": {
            "NORMAL": 1,
            "POSITION": 0,
            "TEXCOORD_0": 2
          },
          "indices": 3,
          "material": 0,
          "mode": 4
        }
      ]
    },
    {
      "name": "Box046_Material #2146802824_0",
      "primitives": [
        {
          "attributes": {
            "NORMAL": 5,
            "POSITION": 4,
            "TEXCOORD_0": 6
          },
          "indices": 7,
          "material": 1,
          "mode": 4
        }
      ]
    },
    {
      "name": "Object030_Material #2146802825_0",
      "primitives": [
        {
          "attributes": {
            "NORMAL": 9,
            "POSITION": 8,
            "TEXCOORD_0": 10
          },
          "indices": 11,
          "material": 2,
          "mode": 4
        }
      ]
    },
    {
      "name": "Box005_Material #2146805349_0",
      "primitives": [
        {
          "attributes": {
            "NORMAL": 13,
            "POSITION": 12,
            "TEXCOORD_0": 14,
            "TEXCOORD_1": 15,
            "TEXCOORD_2": 16
          },
          "indices": 17,
          "material": 3,
          "mode": 4
        }
      ]
    },
    {
      "name": "Box005_Material #2146805349_0",
      "primitives": [
        {
          "attributes": {
            "NORMAL": 19,
            "POSITION": 18,
            "TEXCOORD_0": 20,
            "TEXCOORD_1": 21,
            "TEXCOORD_2": 22
          },
          "indices": 23,
          "material": 3,
          "mode": 4
        }
      ]
    },
    {
      "name": "Object008_Material #2146802812_0",
      "primitives": [
        {
          "attributes": {
            "NORMAL": 25,
            "POSITION": 24,
            "TEXCOORD_0": 26
          },
          "indices": 27,
          "material": 4,
          "mode": 4
        }
      ]
    },
    {
      "name": "Object032_Material #112_0",
      "primitives": [
        {
          "attributes": {
            "NORMAL": 29,
            "POSITION": 28,
            "TEXCOORD_0": 30
          },
          "indices": 31,
          "material": 5,
          "mode": 4
        }
      ]
    },
    {
      "name": "Object033_Material #2146805350_0",
      "primitives": [
        {
          "attributes": {
            "NORMAL": 33,
            "POSITION": 32,
            "TEXCOORD_0": 34,
            "TEXCOORD_1": 35,
            "TEXCOORD_2": 36
          },
          "indices": 37,
          "material": 6,
          "mode": 4
        }
      ]
    }
  ],
  "nodes": [
    {
      "children": [
        1
      ],
      "matrix": [
        1.0,
        0.0,
        0.0,
        0.0,
        0.0,
        2.220446049250313e-16,
        -1.0,
        0.0,
        0.0,
        1.0,
        2.220446049250313e-16,
        0.0,
        0.0,
        0.0,
        0.0,
        1.0
      ],
      "name": "Sketchfab_model"
    },
    {
      "children": [
        2
      ],
      "matrix": [
        0.009999999776482582,
        0.0,
        0.0,
        0.0,
        0.0,
        0.0,
        0.009999999776482582,
        0.0,
        0.0,
        -0.009999999776482582,
        0.0,
        0.0,
        0.0,
        0.0,
        0.0,
        1.0
      ],
      "name": "85d25479c82f49eaba8f3e748b182ce5.fbx"
    },
    {
      "children": [
        3,
        6,
        9,
        12,
        16,
        19,
        22
      ],
      "name": "RootNode"
    },
    {
      "children": [
        4
      ],
      "matrix": [
        1.0,
        0.0,
        0.0,
        0.0,
        0.0,
        2.220446049250313e-16,
        -1.0,
        0.0,
        0.0,
        1.0,
        2.220446049250313e-16,
        0.0,
        53138.15234375,
        139.99722290039063,
        -21169.158203125,
        1.0
      ],
      "name": "Box017"
    },
    {
      "children": [
        5
      ],
      "matrix": [
        1.0,
        0.0,
        -0.0,
        0.0,
        0.0,
        1.0,
        0.0,
        0.0,
        0.0,
        0.0,
        1.0,
        0.0,
        0.0,
        -24.5,
        -87.999267578125,
        1.0
      ],
      "name": "Object_4"
    },
    {
      "mesh": 0,
      "name": "Box017_Material #2146802778_0"
    },
    {
      "children": [
        7
      ],
      "matrix": [
        1.0,
        0.0,
        0.0,
        0.0,
        0.0,
        2.220446049250313e-16,
        -1.0,
        0.0,
        0.0,
        1.0,
        2.220446049250313e-16,
        0.0,
        53108.15625,
        155.0001220703125,
        -20508.80859375,
        1.0
      ],
      "name": "Box046"
    },
    {
      "children": [
        8
      ],
      "matrix": [
        1.0,
        0.0,
        -0.0,
        0.0,
        0.0,
        1.0,
        0.0,
        0.0,
        0.0,
        0.0,
        1.0,
        0.0,
        82.5,
        -0.32421875,
        -55.00013732910156,
        1.0
      ],
      "name": "Object_7"
    },
    {
      "mesh": 1,
      "name": "Box046_Material #2146802824_0"
    },
    {
      "children": [
        10
      ],
      "matrix": [
        1.0,
        0.0,
        0.0,
        0.0,
        0.0,
        2.220446049250313e-16,
        -1.0,
        0.0,
        0.0,
        1.0,
        2.220446049250313e-16,
        0.0,
        53170.6484375,
        139.99722290039063,
        -21194.16015625,
        1.0
      ],
      "name": "Object030"
    },
    {
      "children": [
        11
      ],
      "matrix": [
        1.0,
        0.0,
        -0.0,
        0.0,
        0.0,
        1.0,
        0.0,
        0.0,
        0.0,
        0.0,
        1.0,
        0.0,
        -56.390625,
        -412.1015625,
        -139.99722290039063,
        1.0
      ],
      "name": "Object_10"
    },
    {
      "mesh": 2,
      "name": "Object030_Material #2146802825_0"
    },
    {
      "children": [
        13
      ],
      "matrix": [
        1.0,
        0.0,
        0.0,
        0.0,
        0.0,
        2.220446049250313e-16,
        -1.0,
        0.0,
        0.0,
        1.0,
        2.220446049250313e-16,
        0.0,
        53141.7734375,
        138.9990692138672,
        -20847.66015625,
        1.0
      ],
      "name": "Box005"
    },
    {
      "children": [
        14,
        15
      ],
      "matrix": [
        1.0,
        0.0,
        -0.0,
        0.0,
        0.0,
        1.0,
        0.0,
        0.0,
        0.0,
        0.0,
        1.0,
        0.0,
        -53141.7734375,
        -20847.66015625,
        -138.9990692138672,
        1.0
      ],
      "name": "Object_13"
    },
    {
      "mesh": 3,
      "name": "Box005_Material #2146805349_0"
    },
    {
      "mesh": 4,
      "name": "Box005_Material #2146805349_0"
    },
    {
      "children": [
        17
      ],
      "matrix": [
        0.7076892659673528,
        -1.7881395941721223e-07,
        -0.7065238161835433,
        0.0,
        -0.5570636497205081,
        0.6150897355533562,
        -0.557982712435582,
        0.0,
        0.43457564703358187,
        0.7884571118436755,
        0.4352923038470511,
        0.0,
        53148.84765625,
        266.5588684082031,
        -20793.78515625,
        1.0
      ],
      "name": "Object008"
    },
    {
      "children": [
        18
      ],
      "matrix": [
        1.0,
        0.0,
        -0.0,
        0.0,
        0.0,
        1.0,
        0.0,
        0.0,
        0.0,
        0.0,
        1.0,
        0.0,
        -284.98675537109375,
        -15.929556846618652,
        11.235103607177734,
        1.0
      ],
      "name": "Object_17"
    },
    {
      "mesh": 5,
      "name": "Object008_Material #2146802812_0"
    },
    {
      "children": [
        20
      ],
      "matrix": [
        1.6648146646665005e-07,
        -1.7017320059023951e-16,
        1.0218559503555162,
        0.0,
        0.7426840066909691,
        1.6490897684983774e-16,
        -1.2099858356195044e-07,
        0.0,
        -2.421377021241161e-16,
        0.872393012046814,
        9.685508084964644e-17,
        0.0,
        53326.12109375,
        45.65263366699219,
        -20634.16796875,
        1.0
      ],
      "name": "Object032"
    },
    {
      "children": [
        21
      ],
      "matrix": [
        1.0,
        0.0,
        -0.0,
        0.0,
        0.0,
        1.0,
        0.0,
        0.0,
        0.0,
        0.0,
        1.0,
        0.0,
        -25.517602920532227,
        -0.7341809272766113,
        -41.37192916870117,
        1.0
      ],
      "name": "Object_20"
    },
    {
      "mesh": 6,
      "name": "Object032_Material #112_0"
    },
    {
      "children": [
        23
      ],
      "matrix": [
        1.0,
        0.0,
        0.0,
        0.0,
        0.0,
        2.220446049250313e-16,
        -1.0,
        0.0,
        0.0,
        1.0,
        2.220446049250313e-16,
        0.0,
        53228.15625,
        52.498741149902344,
        -20854.984375,
        1.0
      ],
      "name": "Object033"
    },
    {
      "children": [
        24
      ],
      "matrix": [
        1.0,
        0.0,
        -0.0,
        0.0,
        0.0,
        1.0,
        0.0,
        0.0,
        0.0,
        0.0,
        1.0,
        0.0,
        -53228.15625,
        -20854.984375,
        -52.498741149902344,
        1.0
      ],
      "name": "Object_23"
    },
    {
      "mesh": 7,
      "name": "Object033_Material #2146805350_0"
    }
  ],
  "samplers": [
    {
      "magFilter": 9729,
      "minFilter": 9987,
      "wrapS": 10497,
      "wrapT": 10497
    }
  ],
  "scene": 0,
  "scenes": [
    {
      "name": "Sketchfab_Scene",
      "nodes": [
        0
      ]
    }
  ],
  "textures": [
    {
      "sampler": 0,
      "source": 0
    }
  ]
}
