{
  "accessors": [
    {
      "bufferView": 2,
      "componentType": 5126,
      "count": 65532,
      "max": [
        2.8442859649658203,
        1.5223675966262817,
        2.552208662033081
      ],
      "min": [
        -2.3893837928771973,
        -2.1351728439331055,
        -1.0504975318908691
      ],
      "type": "VEC3"
    },
    {
      "bufferView": 2,
      "byteOffset": 786384,
      "componentType": 5126,
      "count": 65532,
      "max": [
        0.9994342923164368,
        0.999955415725708,
        0.9999908804893494
      ],
      "min": [
        -0.9999451637268066,
        -0.9998226165771484,
        -0.9999644756317139
      ],
      "type": "VEC3"
    },
    {
      "bufferView": 1,
      "componentType": 5126,
      "count": 65532,
      "max": [
        0.9997559785842896,
        0.3884280025959015
      ],
      "min": [
        0.00024399999529123306,
        0.00024399999529123306
      ],
      "type": "VEC2"
    },
    {
      "bufferView": 0,
      "componentType": 5125,
      "count": 338019,
      "type": "SCALAR"
    },
    {
      "bufferView": 2,
      "byteOffset": 1572768,
      "componentType": 5126,
      "count": 55464,
      "max": [
        2.8195533752441406,
        1.5666743516921997,
        2.56632924079895
      ],
      "min": [
        -2.388909101486206,
        -2.1479523181915283,
        -1.1165695190429688
      ],
      "type": "VEC3"
    },
    {
      "bufferView": 2,
      "byteOffset": 2238336,
      "componentType": 5126,
      "count": 55464,
      "max": [
        0.980228841304779,
        0.9999768137931824,
        0.9999908804893494
      ],
      "min": [
        -0.9999451637268066,
        -0.9994009137153625,
        -0.9999644756317139
      ],
      "type": "VEC3"
    },
    {
      "bufferView": 1,
      "byteOffset": 524256,
      "componentType": 5126,
      "count": 55464,
      "max": [
        0.9997550249099731,
        0.39819300174713135
      ],
      "min": [
        0.00024399999529123306,
        0.00024399999529123306
      ],
      "type": "VEC2"
    },
    {
      "bufferView": 0,
      "byteOffset": 1352076,
      "componentType": 5125,
      "count": 261981,
      "type": "SCALAR"
    }
  ],
  "asset": {
    "extras": {
      "author": "Austin Beaulier (https://sketchfab.com/Austin.Beaulier)",
      "license": "SKETCHFAB Standard (https://sketchfab.com/licenses)",
      "source": "https://sketchfab.com/3d-models/upper-part-of-egyptian-anthropoid-coffin-cda895671f4840c2844458bc5632646b",
      "title": "Upper part of Egyptian Anthropoid coffin"
    },
    "generator": "Sketchfab-15.49.0",
    "version": "2.0"
  },
  "bufferViews": [
    {
      "buffer": 0,
      "byteLength": 2400000,
      "name": "floatBufferViews",
      "target": 34963
    },
    {
      "buffer": 0,
      "byteLength": 967968,
      "byteOffset": 2400000,
      "byteStride": 8,
      "name": "floatBufferViews",
      "target": 34962
    },
    {
      "buffer": 0,
      "byteLength": 2903904,
      "byteOffset": 3367968,
      "byteStride": 12,
      "name": "floatBufferViews",
      "target": 34962
    }
  ],
  "buffers": [
    {
      "byteLength": 6271872,
      "uri": "scene.bin"
    }
  ],
  "extensionsUsed": [
    "KHR_materials_unlit"
  ],
  "images": [
    {
      "uri": "textures/model_Material_u1_v1_baseColor.jpeg"
    }
  ],
  "materials": [
    {
      "doubleSided": true,
      "extensions": {
        "KHR_materials_unlit": {}
      },
      "name": "model_Material_u1_v1",
      "pbrMetallicRoughness": {
        "baseColorTexture": {
          "index": 0
        },
        "metallicFactor": 0.0
      }
    }
  ],
  "meshes": [
    {
      "name": "Object_0",
      "primitives": [
        {
          "attributes": {
            "NORMAL": 1,
            "POSITION": 0,
            "TEXCOORD_0": 2
          },
          "indices": 3,
          "material": 0,
          "mode": 4
        }
      ]
    },
    {
      "name": "Object_1",
      "primitives": [
        {
          "attributes": {
            "NORMAL": 5,
            "POSITION": 4,
            "TEXCOORD_0": 6
          },
          "indices": 7,
          "material": 0,
          "mode": 4
        }
      ]
    }
  ],
  "nodes": [
    {
      "children": [
        1
      ],
      "matrix": [
        -0.47681954503059387,
        -0.8766145706176758,
        -0.06473080813884755,
        0.0,
        0.5935097336769104,
        -0.3753985464572908,
        0.7119144201278685,
        0.0,
        -0.6483743786811829,
        0.3010363578796385,
        0.6992765665054322,
        0.0,
        0.0,
        0.0,
        0.0,
        1.0
      ],
      "name": "Sketchfab_model"
    },
    {
      "children": [
        2,
        3
      ],
      "name": "model.obj.cleaner.materialmerger.gles"
    },
    {
      "mesh": 0,
      "name": "Object_2"
    },
    {
      "mesh": 1,
      "name": "Object_3"
    }
  ],
  "samplers": [
    {
      "magFilter": 9729,
      "minFilter": 9987,
      "wrapS": 10497,
      "wrapT": 10497
    }
  ],
  "scene": 0,
  "scenes": [
    {
      "name": "Sketchfab_Scene",
      "nodes": [
        0
      ]
    }
  ],
  "textures": [
    {
      "sampler": 0,
      "source": 0
    }
  ]
}
